# xmcd CD database file
#
# Track frame offsets:
#	150
#	22347
#	39342
#	69872
#	84930
#	99812
#	126257
#	144465
#	174635
#	211222
#	244412
#	286737
#
# Disc length: 4421 seconds
#
# Revision: 0
# Processed by: cddbd v1.5.2PL0 Copyright (c) Steve Scherf et al.
# Submitted via: CDex 1.70beta2
#
DISCID=a011430c
DTITLE=Various Artist - The Jazz Giants Play Charlie Parker
DYEAR=1999
DGENRE=Jazz
TTITLE0=Joe Pass - Relaxin' In Camarillo
TTITLE1=Phineas Newborn, Jr. - Cheryl
TTITLE2=Sonny Criss - Scrapple From The Apple
TTITLE3=Art Pepper - Anthropology
TTITLE4=Jack McDuff - Au Privave
TTITLE5=Joe Farrell - Confirmation (take 2)
TTITLE6=Clark Terry - Donna Lee
TTITLE7=Hampton Hawes - Yardbird Suite
TTITLE8=Jackie McLean - Steeplechase
TTITLE9=Oscar Peterson - Now's The Time
TTITLE10=Red Garland - Billie's Bounce
TTITLE11=Harold Land - Klactoveedsedstene
EXTD=YEAR: 1999
EXTT0=
EXTT1=
EXTT2=
EXTT3=
EXTT4=
EXTT5=
EXTT6=
EXTT7=
EXTT8=
EXTT9=
EXTT10=
EXTT11=
PLAYORDER=
